<?xml version="1.0" encoding="UTF-8" standalone="no"?>

<svg
   width="15.992349"
   height="16.001507"
   viewBox="0 0 0.47977046 0.4800452"
   fill="none"
   version="1.1"
   id="svg1"
   sodipodi:docname="fs.svg"
   inkscape:version="1.3.2 (091e20e, 2023-11-25)"
   xmlns:inkscape="http://www.inkscape.org/namespaces/inkscape"
   xmlns:sodipodi="http://sodipodi.sourceforge.net/DTD/sodipodi-0.dtd"
   xmlns="http://www.w3.org/2000/svg"
   xmlns:svg="http://www.w3.org/2000/svg">
  <defs
     id="defs1" />
  <sodipodi:namedview
     id="namedview1"
     pagecolor="#ffffff"
     bordercolor="#eeeeee"
     borderopacity="1"
     inkscape:showpageshadow="0"
     inkscape:pageopacity="0"
     inkscape:pagecheckerboard="0"
     inkscape:deskcolor="#d1d1d1"
     showgrid="false"
     inkscape:zoom="22.733014"
     inkscape:cx="8.621822"
     inkscape:cy="8.819772"
     inkscape:window-width="1915"
     inkscape:window-height="1065"
     inkscape:window-x="1080"
     inkscape:window-y="637"
     inkscape:window-maximized="1"
     inkscape:current-layer="svg1" />
  <path
     d="m 0.40083845,0.31158143 v 0.1431175 m 0,0 -0.053639,-0.047706 m 0.053639,0.047706 0.053639,-0.047706 m -0.2145595,-0.3816466 h -0.1287371 c -0.030041,0 -0.045062,0 -0.056536,0.0052 -0.010099,0.00457 -0.018305,0.011872 -0.023442,0.020848 -0.00585,0.010205 -0.00585,0.023564 -0.00585,0.050281 v 0.276694 c 0,0.026718 0,0.040078 0.00585,0.050282 0.00513,0.00898 0.01334,0.016275 0.023442,0.020847 0.011466,0.0052 0.026495,0.0052 0.056536,0.0052 h 0.1555559 m -0.0268188,-0.429352 0.1609205,0.1431175 m -0.1609205,-0.1431175 v 0.1049529 c 0,0.013359 0,0.020038 0.00292,0.025141 0.00257,0.00449 0.00667,0.00814 0.011729,0.010424 0.00573,0.0026 0.013246,0.0026 0.028269,0.0026 h 0.1180089 m 0,0 v 0.047706"
     stroke="#000000"
     stroke-width="0.050586"
     stroke-linecap="round"
     stroke-linejoin="round"
     id="path1"
     inkscape:label="file"
     sodipodi:insensitive="true" />
  <path
     style="font-weight:bold;font-size:3.68px;line-height:1.25;font-family:Ubuntu;-inkscape-font-specification:'Ubuntu Bold';text-align:center;letter-spacing:0px;word-spacing:0px;text-anchor:middle;display:inline;fill:#000000;stroke-width:0.000758791"
     d="m 0.12871255,0.29683663 q 0,0.00448 -0.00118,0.00843 -0.00109,0.00395 -0.00395,0.00693 -0.00277,0.0029 -0.00761,0.00465 -0.00474,0.00167 -0.012047,0.00167 -0.00671,0 -0.011541,-0.0014 -0.00483,-0.00149 -0.008,-0.00342 l 0.00513,-0.010621 q 0.00287,0.00149 0.00613,0.00263 0.00326,0.00114 0.0071,0.00114 0.00562,0 0.00809,-0.00246 0.00247,-0.00246 0.00247,-0.00825 v -0.039676 h 0.015401 z m 0.033459,0.010007 q 0.00326,0 0.00532,-4.388e-4 0.00217,-5.267e-4 0.00345,-0.00132 0.00128,-8.776e-4 0.00178,-0.00202 4.935e-4,-0.00114 4.935e-4,-0.00255 0,-0.00298 -0.00317,-0.00492 -0.00317,-0.00202 -0.010848,-0.0043 -0.00335,-0.00105 -0.00671,-0.00237 -0.00335,-0.0014 -0.00601,-0.00342 -0.00266,-0.00211 -0.00435,-0.005 -0.00168,-0.00298 -0.00168,-0.0072 0,-0.00421 0.00178,-0.00755 0.00178,-0.00342 0.00504,-0.00579 0.00326,-0.00237 0.00789,-0.0036 0.00465,-0.00132 0.010455,-0.00132 0.00691,0 0.011935,0.00132 0.00504,0.00132 0.00828,0.0029 l -0.00444,0.010797 q -0.00287,-0.00132 -0.00641,-0.00228 -0.00345,-0.00105 -0.00839,-0.00105 -0.00553,0 -0.008,0.0014 -0.00236,0.00132 -0.00236,0.00413 0,0.00167 8.883e-4,0.00281 8.882e-4,0.00114 0.00247,0.00211 0.00168,8.779e-4 0.00375,0.00167 0.00217,7.023e-4 0.00474,0.00149 0.00532,0.00176 0.00927,0.00351 0.00395,0.00167 0.00652,0.00395 0.00266,0.00228 0.00395,0.00535 0.00128,0.00307 0.00128,0.00746 0,0.00851 -0.00671,0.013255 -0.00671,0.00465 -0.020233,0.00465 -0.00453,0 -0.00819,-5.266e-4 -0.00365,-4.388e-4 -0.00652,-0.00114 -0.00277,-7.023e-4 -0.00483,-0.00149 -0.00197,-7.901e-4 -0.00335,-0.00149 l 0.00435,-0.010885 q 0.00305,0.00149 0.00749,0.00272 0.00453,0.00114 0.011054,0.00114 z m 0.051717,-0.020014 q 0,0.00448 0.00118,0.00808 0.00128,0.0036 0.00356,0.00623 0.00236,0.00255 0.00573,0.00395 0.00335,0.0014 0.0077,0.0014 0.00425,0 0.00761,-0.0014 0.00345,-0.0014 0.00573,-0.00395 0.00236,-0.00263 0.00356,-0.00623 0.00128,-0.0036 0.00128,-0.00808 0,-0.00448 -0.00128,-0.00808 -0.00118,-0.00369 -0.00356,-0.00623 -0.00227,-0.00263 -0.00573,-0.00404 -0.00335,-0.0014 -0.00761,-0.0014 -0.00435,0 -0.0077,0.00149 -0.00335,0.0014 -0.00573,0.00404 -0.00227,0.00255 -0.00356,0.00623 -0.00118,0.0036 -0.00118,0.00799 z m 0.052212,0 q 0,0.00781 -0.00266,0.013781 -0.00257,0.00588 -0.0071,0.00992 -0.00453,0.00395 -0.010848,0.00597 -0.00622,0.00202 -0.013415,0.00202 -0.00701,0 -0.013228,-0.00202 -0.00622,-0.00202 -0.010848,-0.00597 -0.00465,-0.00404 -0.00731,-0.00992 -0.00266,-0.00597 -0.00266,-0.013781 0,-0.00781 0.00277,-0.013694 0.00275,-0.00597 0.0074,-0.010007 0.00474,-0.00404 0.010848,-0.00606 0.00622,-0.00202 0.013022,-0.00202 0.00701,0 0.013228,0.00202 0.00622,0.00202 0.010848,0.00606 0.00465,0.00404 0.00731,0.010007 0.00266,0.00588 0.00266,0.013694 z m 0.058724,0.030459 q -0.00661,-0.010446 -0.014314,-0.020628 -0.0077,-0.010182 -0.016375,-0.019224 v 0.039852 h -0.015195 v -0.060831 h 0.012534 q 0.00326,0.0029 0.00721,0.00711 0.00395,0.00421 0.008,0.00904 0.00414,0.00474 0.00819,0.00992 0.00405,0.00509 0.00761,0.00983 v -0.035902 h 0.015307 v 0.060831 z"
     id="text1"
     inkscape:label="json"
     aria-label="JSON" />
  <path
     style="font-weight:bold;font-size:3.68px;line-height:1.25;font-family:Ubuntu;-inkscape-font-specification:'Ubuntu Bold';text-align:center;letter-spacing:0px;word-spacing:0px;text-anchor:middle;display:none;fill:#000000;stroke-width:0.000758791"
     d="m 0.15151185,0.31851803 q -0.016675,0 -0.025464,-0.00825 -0.00869,-0.00825 -0.00869,-0.023437 0,-0.00755 0.00266,-0.01343 0.00266,-0.00597 0.00731,-0.010007 0.00465,-0.00413 0.011054,-0.00623 0.00641,-0.00211 0.013921,-0.00211 0.00435,0 0.00789,6.145e-4 0.00356,5.266e-4 0.00622,0.00132 0.00266,7.023e-4 0.00444,0.00149 0.00178,7.901e-4 0.00257,0.00123 l -0.00444,0.01106 q -0.00317,-0.00149 -0.0074,-0.00255 -0.00414,-0.00105 -0.00948,-0.00105 -0.00356,0 -0.00701,0.00105 -0.00335,0.00105 -0.00601,0.00342 -0.00257,0.00228 -0.00414,0.00597 -0.00158,0.00369 -0.00158,0.00895 0,0.00421 9.871e-4,0.0079 0.00109,0.0036 0.00335,0.00623 0.00236,0.00263 0.00613,0.00421 0.00375,0.00149 0.00909,0.00149 0.00335,0 0.00601,-3.51e-4 0.00266,-3.51e-4 0.00474,-7.901e-4 0.00208,-5.267e-4 0.00365,-0.00114 0.00158,-6.145e-4 0.00287,-0.00114 l 0.00425,0.010972 q -0.00326,0.00176 -0.00918,0.00316 -0.00592,0.0014 -0.013715,0.0014 z m 0.0531,-0.011675 q 0.00326,0 0.00532,-4.388e-4 0.00217,-5.267e-4 0.00345,-0.00132 0.00128,-8.776e-4 0.00178,-0.00202 4.935e-4,-0.00114 4.935e-4,-0.00255 0,-0.00298 -0.00317,-0.00492 -0.00317,-0.00202 -0.010848,-0.0043 -0.00335,-0.00105 -0.00671,-0.00237 -0.00335,-0.0014 -0.00601,-0.00342 -0.00266,-0.00211 -0.00435,-0.005 -0.00168,-0.00298 -0.00168,-0.0072 0,-0.00421 0.00178,-0.00755 0.00178,-0.00342 0.00504,-0.00579 0.00326,-0.00237 0.00789,-0.0036 0.00465,-0.00132 0.010455,-0.00132 0.00691,0 0.011935,0.00132 0.00504,0.00132 0.00828,0.0029 l -0.00444,0.010797 q -0.00287,-0.00132 -0.00641,-0.00228 -0.00345,-0.00105 -0.00839,-0.00105 -0.00553,0 -0.008,0.0014 -0.00236,0.00132 -0.00236,0.00413 0,0.00167 8.883e-4,0.00281 8.882e-4,0.00114 0.00247,0.00211 0.00168,8.779e-4 0.00375,0.00167 0.00217,7.023e-4 0.00474,0.00149 0.00532,0.00176 0.00927,0.00351 0.00395,0.00167 0.00652,0.00395 0.00266,0.00228 0.00395,0.00535 0.00128,0.00307 0.00128,0.00746 0,0.00851 -0.00671,0.013255 -0.00671,0.00465 -0.020233,0.00465 -0.00453,0 -0.00819,-5.266e-4 -0.00365,-4.388e-4 -0.00652,-0.00114 -0.00277,-7.023e-4 -0.00483,-0.00149 -0.00197,-7.901e-4 -0.00335,-0.00149 l 0.00435,-0.010885 q 0.00305,0.00149 0.00749,0.00272 0.00453,0.00114 0.011054,0.00114 z m 0.058132,0.010446 q -0.00405,-0.00764 -0.008,-0.015888 -0.00395,-0.00825 -0.00749,-0.016327 -0.00356,-0.00808 -0.00661,-0.015449 -0.00296,-0.00737 -0.00513,-0.013167 h 0.016975 q 0.00197,0.00527 0.00425,0.011411 0.00236,0.00606 0.00474,0.012113 0.00247,0.00606 0.00474,0.011587 0.00227,0.00553 0.00425,0.00957 0.00187,-0.00404 0.00414,-0.00957 0.00236,-0.00553 0.00474,-0.011587 0.00247,-0.00606 0.00474,-0.012113 0.00236,-0.00614 0.00435,-0.011411 h 0.016375 q -0.00227,0.00579 -0.00523,0.013167 -0.00296,0.00737 -0.00652,0.015449 -0.00356,0.00808 -0.00749,0.016327 -0.00395,0.00825 -0.008,0.015888 z"
     id="text4"
     inkscape:label="csv"
     aria-label="CSV" />
  <path
     style="font-weight:bold;font-size:3.68px;line-height:1.25;font-family:Ubuntu;-inkscape-font-specification:'Ubuntu Bold';text-align:center;letter-spacing:0px;word-spacing:0px;text-anchor:middle;display:none;fill:#000000;stroke-width:0.000758791"
     d="m 0.17357065,0.25645843 v 0.011675 h -0.020628 v 0.049156 h -0.015401 v -0.049156 h -0.020628 v -0.011675 z m 0.028524,0.050385 q 0.00326,0 0.00532,-4.388e-4 0.00217,-5.267e-4 0.00345,-0.00132 0.00128,-8.776e-4 0.00178,-0.00202 4.935e-4,-0.00114 4.935e-4,-0.00255 0,-0.00298 -0.00317,-0.00492 -0.00317,-0.00202 -0.010848,-0.0043 -0.00335,-0.00105 -0.00671,-0.00237 -0.00335,-0.0014 -0.00601,-0.00342 -0.00266,-0.00211 -0.00435,-0.005 -0.00168,-0.00298 -0.00168,-0.0072 0,-0.00421 0.00178,-0.00755 0.00178,-0.00342 0.00504,-0.00579 0.00326,-0.00237 0.00789,-0.0036 0.00465,-0.00132 0.010455,-0.00132 0.00691,0 0.011935,0.00132 0.00504,0.00132 0.00828,0.0029 l -0.00444,0.010797 q -0.00287,-0.00132 -0.00641,-0.00228 -0.00345,-0.00105 -0.00839,-0.00105 -0.00553,0 -0.008,0.0014 -0.00236,0.00132 -0.00236,0.00413 0,0.00167 8.883e-4,0.00281 8.882e-4,0.00114 0.00247,0.00211 0.00168,8.779e-4 0.00375,0.00167 0.00217,7.023e-4 0.00474,0.00149 0.00532,0.00176 0.00927,0.00351 0.00395,0.00167 0.00652,0.00395 0.00266,0.00228 0.00395,0.00535 0.00128,0.00307 0.00128,0.00746 0,0.00851 -0.00671,0.013255 -0.00671,0.00465 -0.020233,0.00465 -0.00453,0 -0.00819,-5.266e-4 -0.00365,-4.388e-4 -0.00652,-0.00114 -0.00277,-7.023e-4 -0.00483,-0.00149 -0.00197,-7.901e-4 -0.00335,-0.00149 l 0.00435,-0.010885 q 0.00305,0.00149 0.00749,0.00272 0.00453,0.00114 0.011054,0.00114 z m 0.058132,0.010446 q -0.00405,-0.00764 -0.008,-0.015888 -0.00395,-0.00825 -0.00749,-0.016327 -0.00356,-0.00808 -0.00661,-0.015449 -0.00296,-0.00737 -0.00513,-0.013167 h 0.016975 q 0.00197,0.00527 0.00425,0.011411 0.00236,0.00606 0.00474,0.012113 0.00247,0.00606 0.00474,0.011587 0.00227,0.00553 0.00425,0.00957 0.00187,-0.00404 0.00414,-0.00957 0.00236,-0.00553 0.00474,-0.011587 0.00247,-0.00606 0.00474,-0.012113 0.00236,-0.00614 0.00435,-0.011411 h 0.016375 q -0.00227,0.00579 -0.00523,0.013167 -0.00296,0.00737 -0.00652,0.015449 -0.00356,0.00808 -0.00749,0.016327 -0.00395,0.00825 -0.008,0.015888 z"
     id="text6"
     inkscape:label="tsv"
     aria-label="TSV" />
</svg>
