<?xml version="1.0" encoding="UTF-8" standalone="no"?>
<svg
   height="16"
   viewBox="0 0 15.37867 16"
   width="15.37867"
   version="1.1"
   id="svg1"
   sodipodi:docname="zipkin.svg"
   inkscape:version="1.3.2 (091e20e, 2023-11-25)"
   xmlns:inkscape="http://www.inkscape.org/namespaces/inkscape"
   xmlns:sodipodi="http://sodipodi.sourceforge.net/DTD/sodipodi-0.dtd"
   xmlns="http://www.w3.org/2000/svg"
   xmlns:svg="http://www.w3.org/2000/svg">
  <defs
     id="defs1" />
  <sodipodi:namedview
     id="namedview1"
     pagecolor="#ffffff"
     bordercolor="#eeeeee"
     borderopacity="1"
     inkscape:showpageshadow="0"
     inkscape:pageopacity="0"
     inkscape:pagecheckerboard="0"
     inkscape:deskcolor="#d1d1d1"
     showgrid="false"
     inkscape:zoom="5.0651412"
     inkscape:cx="50.936389"
     inkscape:cy="31.292316"
     inkscape:window-width="1915"
     inkscape:window-height="1065"
     inkscape:window-x="1080"
     inkscape:window-y="637"
     inkscape:window-maximized="1"
     inkscape:current-layer="svg1" />
  <path
     d="m 7.710215,0 c 0.205558,0.30188 0.390524,0.618069 0.580726,0.93007 0.214631,0.363652 0.458579,0.700433 0.658553,1.071762 0.199276,0.374122 0.439384,0.711251 0.658203,1.073507 0.238364,0.411115 0.509881,0.801989 0.736379,1.219038 0.359813,0.604808 0.747197,1.191816 1.108057,1.795926 0.217075,0.406578 0.484753,0.782794 0.715788,1.181345 0.222659,0.389828 0.492431,0.746151 0.695895,1.147146 0.417397,0.696942 0.865506,1.375386 1.274528,2.078262 0.398203,0.682982 0.836539,1.340138 1.240326,2.019631 -0.286873,0.12808 -0.562928,0.279893 -0.851547,0.403088 -0.325961,0.130175 -0.627143,0.311653 -0.947171,0.456485 -0.618417,0.288968 -1.218339,0.622955 -1.845831,0.889936 -0.774419,0.376914 -1.544999,0.763948 -2.319767,1.139118 -0.424377,0.177987 -0.825721,0.401344 -1.243816,0.593988 -6.98e-4,-3.049164 -0.0062,-6.100423 0.0028,-9.149588 0.224404,0.391223 0.437639,0.789077 0.670069,1.17646 0.173451,0.344458 0.353183,0.684728 0.549318,1.01732 0.266981,0.444968 0.50325,0.907385 0.768486,1.354098 0.129826,0.248135 0.254067,0.499411 0.396807,0.740566 -0.333988,0.167518 -0.644244,0.359465 -0.987655,0.510231 -0.185316,0.08061 -0.364001,0.174845 -0.541639,0.271866 -0.0024,0.356324 -0.0035,0.713345 0.0011,1.070017 0.669371,-0.251276 1.30838,-0.584565 1.966235,-0.865506 0.380055,-0.160188 0.741962,-0.354578 1.127951,-0.500459 -0.231733,-0.369585 -0.466955,-0.73568 -0.676352,-1.118178 C 11.13112,10.018584 10.842502,9.513589 10.522474,9.027789 10.313077,8.710204 10.145909,8.368539 9.938955,8.04851 9.608457,7.538629 9.292966,7.019326 8.976079,6.50072 8.559729,5.777953 8.094519,5.090084 7.66735,4.374995 7.467376,4.684901 7.286597,5.006326 7.082785,5.314139 6.675508,5.954544 6.29999,6.612398 5.897948,7.255595 5.635853,7.703355 5.336765,8.117612 5.092468,8.575143 4.96369,8.814205 4.812226,9.035816 4.667743,9.264756 4.409138,9.677267 4.162399,10.097108 3.898908,10.506478 3.695444,10.875715 3.47104,11.23134 3.249429,11.589408 c 0.209397,0.0698 0.405183,0.15635 0.600271,0.258954 0.488592,0.23941 0.987305,0.456136 1.472407,0.701828 0.325612,0.146229 0.639358,0.31933 0.975439,0.432404 0.02792,-0.352484 0.04363,-0.704969 0.0541,-1.058151 C 6.182733,11.827073 6.009982,11.735986 5.831296,11.657462 5.480556,11.501113 5.162274,11.313353 4.823051,11.136413 5.286865,10.26637 5.773363,9.417267 6.260908,8.560136 6.547782,7.980806 6.885609,7.427998 7.201797,6.864721 c -0.0056,0.480216 0.007,0.959735 0.0011,1.439952 C 7.186487,10.870131 7.182657,13.434891 7.157527,16 6.874493,15.863194 6.591808,15.72569 6.311565,15.583999 5.836932,15.38228 5.373119,15.150548 4.913493,14.916722 4.500633,14.715003 4.082537,14.526546 3.67561,14.312961 2.928762,13.998866 2.221001,13.606596 1.484273,13.266676 1.000218,13.006325 0.486498,12.816124 0,12.559613 0.335732,12.010994 0.685774,11.472146 1.019762,10.922131 1.430877,10.221699 1.859094,9.529992 2.295685,8.845265 2.479257,8.559439 2.625834,8.25337 2.813244,7.969638 3.132574,7.483488 3.42189,6.979191 3.736335,6.489552 4.134887,5.779697 4.588579,5.109628 5.006675,4.412686 5.245038,3.970161 5.536448,3.560093 5.787724,3.124198 5.956638,2.831392 6.159055,2.560223 6.32378,2.265323 6.533874,1.871657 6.780613,1.496488 7.021419,1.120971 7.249313,0.746499 7.475811,0.370632 7.710335,0 Z m 0,0"
     fill="#fe7139"
     id="path1"
     style="stroke-width:0.0893426" />
</svg>
